# xmcd
# 
# Track frame offsets:
#     150
#     18526
#     37815
#     53218
#     78663
#     94686
#     112896
#     139532
#     164561
#     184924
#     197778
#     222897
#     241023
# 
# Disc length: 3448
# 
# Revision: 14
# Processed by: cddbd v1.5.2PL0 Copyright (c) Steve Scherf et al.
# Submitted via: fre:ac v1.0.17
# 
DISCID=a90d760d
DTITLE=Plant, Robert and Alison Krauss / Raising Sand
DYEAR=2007
DGENRE=Soft Rock
TTITLE0=Rich Woman
TTITLE1=Killing The Blues
TTITLE2=Sister Rosetta Goes Before Us
TTITLE3=Polly Come Home
TTITLE4=Gone Gone Gone (Done Moved On)
TTITLE5=Through The Morning, Through The Night
TTITLE6=Please Read The Letter
TTITLE7=Trampled Rose
TTITLE8=Fortune Teller
TTITLE9=Stick With Me Baby
TTITLE10=Nothin'
TTITLE11=Let Your Loss Be Your Lesson
TTITLE12=Your Long Journey
EXTD=Raising Sand funktioniert wohl deshalb so erstaunlich gut, weil sich Plant und Krauss sozusagen auf halbem Wege entgegenkommen, so wie man es in harmonischen Beziehungen halt macht. Der britische Rock-Veteran nimmt sich zurück, zeigt seine lammfromme
EXTD= Seite und singt über weite Strecken überraschend sanft, die 20-fache Grammy-Gewinnerin andererseits geht aus sich heraus und verblüfft mehrmals mit ziemlich energischen Tönen. So ergänzt sich das ungleiche Paar hier in Titeln von Sam Phillips, Tom W
EXTD=aits, den Everly Brothers, Gene Clark, Mel Tillis und Townes Van Zandt ein ums andere Mal perfekt. Ihr Rendezvous im Aufnahmeraum ist zum Niederknien schön!
EXTT0=
EXTT1=
EXTT2=
EXTT3=
EXTT4=
EXTT5=
EXTT6=
EXTT7=
EXTT8=
EXTT9=
EXTT10=
EXTT11=
EXTT12=
PLAYORDER=
.
